<svg width="238" height="145" viewBox="0 0 238 145" fill="none" xmlns="http://www.w3.org/2000/svg">
<path d="M46.648 145C42.7227 145 38.9253 143.379 35.256 140.136C31.672 136.893 28.6427 132.2 26.168 126.056C23.7787 119.912 22.3707 112.488 21.944 103.784C19.2987 104.04 16.8667 104.168 14.648 104.168C9.69867 104.168 6.072 103.528 3.768 102.248C1.54933 100.968 0.44 99.304 0.44 97.256C0.44 95.208 1.42133 92.9467 3.384 90.472C5.34667 87.9973 8.07733 85.5227 11.576 83.048C15.0747 80.488 19.1707 78.184 23.864 76.136C25.4853 67.432 28.088 58.0453 31.672 47.976C35.3413 37.8213 40.248 27.0693 46.392 15.72C46.9893 14.6107 47.8853 14.056 49.08 14.056C49.848 14.056 50.5307 14.312 51.128 14.824C51.7253 15.336 52.024 16.0187 52.024 16.872C52.024 17.2987 51.896 17.8533 51.64 18.536C46.1787 29.544 41.6133 39.656 37.944 48.872C34.36 58.0027 31.544 66.3653 29.496 73.96C33.336 72.5093 37.432 71.3147 41.784 70.376C46.136 69.4373 50.5733 68.8827 55.096 68.712C56.2907 68.712 56.888 68.8827 56.888 69.224C56.888 69.5653 56.4613 69.9067 55.608 70.248C54.84 70.504 53.5173 70.6747 51.64 70.76C47.4587 71.016 43.448 71.6133 39.608 72.552C35.8533 73.4053 32.312 74.472 28.984 75.752C27.704 80.7013 26.7227 85.3093 26.04 89.576C25.3573 93.7573 24.9307 97.64 24.76 101.224C33.5493 99.3467 41.528 96.616 48.696 93.032C55.9493 89.3627 62.3493 85.1387 67.896 80.36C73.4427 75.5813 78.0933 70.632 81.848 65.512C84.2373 62.2693 85.944 59.4107 86.968 56.936C88.0773 54.376 88.632 52.1573 88.632 50.28C88.632 47.5493 87.7787 45.416 86.072 43.88C84.3653 42.2587 82.104 41.1067 79.288 40.424C76.472 39.656 73.4 39.272 70.072 39.272C66.5733 39.272 63.032 39.6133 59.448 40.296C55.864 40.8933 52.6213 41.7467 49.72 42.856C49.0373 43.0267 48.568 43.112 48.312 43.112C47.2027 43.112 46.648 42.728 46.648 41.96C46.648 41.192 47.1173 40.5947 48.056 40.168C58.552 34.1947 66.0187 28.776 70.456 23.912C74.8933 19.048 77.112 14.952 77.112 11.624C77.112 8.72266 75.7467 6.504 73.016 4.96799C70.3707 3.34666 66.872 2.536 62.52 2.536C59.1067 2.536 55.2667 3.09066 51 4.2C46.7333 5.30933 42.3387 7.10133 37.816 9.576C34.0613 11.624 30.648 14.056 27.576 16.872C24.5893 19.6027 22.0293 22.4613 19.896 25.448C17.848 28.3493 16.312 31.1227 15.288 33.768C14.264 36.328 13.88 38.504 14.136 40.296C14.136 40.4667 14.136 40.68 14.136 40.936C14.2213 41.1067 14.264 41.2773 14.264 41.448C14.264 43.5813 13.624 44.648 12.344 44.648C11.7467 44.648 11.1067 44.2213 10.424 43.368C9.82667 42.5147 9.528 41.2347 9.528 39.528C9.528 36.968 10.296 34.2373 11.832 31.336C13.4533 28.4347 15.5867 25.5333 18.232 22.632C20.9627 19.6453 23.992 16.872 27.32 14.312C30.648 11.6667 34.104 9.40533 37.688 7.52799C42.296 5.05333 46.8187 3.21866 51.256 2.02399C55.7787 0.829328 59.9173 0.231995 63.672 0.231995C68.8773 0.231995 73.1013 1.25599 76.344 3.30399C79.5867 5.352 81.208 8.21067 81.208 11.88C81.208 15.2933 79.544 19.2613 76.216 23.784C72.888 28.3067 67.2987 33.2987 59.448 38.76C62.0933 38.3333 64.568 38.0347 66.872 37.864C69.176 37.608 71.3093 37.48 73.272 37.48C80.6107 37.48 85.9013 38.7173 89.144 41.192C92.472 43.5813 94.136 46.696 94.136 50.536C94.136 53.352 93.3253 56.424 91.704 59.752C90.168 62.9947 87.992 66.3653 85.176 69.864C81.08 74.8987 75.9173 79.7627 69.688 84.456C63.544 89.1493 56.632 93.2027 48.952 96.616C41.3573 100.029 33.2507 102.333 24.632 103.528C24.4613 111.123 25.144 117.395 26.68 122.344C28.3013 127.293 30.3493 131.133 32.824 133.864C35.2987 136.68 37.7733 138.643 40.248 139.752C42.7227 140.947 44.7707 141.544 46.392 141.544C47.5867 141.544 48.3973 141.331 48.824 140.904C49.1653 140.477 49.6773 140.264 50.36 140.264C51.0427 140.264 51.6827 140.52 52.28 141.032C52.8773 141.544 53.176 142.099 53.176 142.696C53.176 143.208 52.8773 143.592 52.28 143.848C50.4027 144.616 48.5253 145 46.648 145ZM15.16 102.504C16.0987 102.504 17.1227 102.419 18.232 102.248C19.3413 102.163 20.536 102.035 21.816 101.864C21.7307 98.28 21.816 94.5253 22.072 90.6C22.328 86.6747 22.7973 82.5787 23.48 78.312C18.0187 81.128 13.7093 84.2853 10.552 87.784C7.39467 91.1973 5.816 94.2267 5.816 96.872C5.816 98.4933 6.584 99.816 8.12 100.84C9.656 101.949 12.0027 102.504 15.16 102.504ZM109.018 54.248C108.25 54.248 107.695 53.864 107.354 53.096C107.098 52.2427 106.97 51.6453 106.97 51.304C106.97 49.9387 107.354 48.6587 108.122 47.464C108.975 46.184 109.914 45.5013 110.938 45.416H111.322C112.346 45.416 113.029 45.672 113.37 46.184C113.797 46.6107 114.01 47.1653 114.01 47.848C114.01 49.128 113.455 50.536 112.346 52.072C111.237 53.5227 110.127 54.248 109.018 54.248ZM102.49 100.072C99.5887 100.072 97.626 98.9627 96.602 96.744C95.578 94.5253 95.066 91.9653 95.066 89.064C95.066 86.1627 95.3647 83.1333 95.962 79.976C96.6447 76.7333 97.37 73.7893 98.138 71.144C98.9913 68.4987 99.6313 66.6213 100.058 65.512C100.997 63.5493 101.935 61.8853 102.874 60.52C103.813 59.0693 104.837 58.344 105.946 58.344C106.714 58.344 107.269 58.6427 107.61 59.24C108.037 59.752 108.25 60.4347 108.25 61.288C108.25 62.9947 107.781 64.744 106.842 66.536C105.903 68.2427 105.05 69.864 104.282 71.4C102.575 74.8987 101.21 78.0133 100.186 80.744C99.2473 83.4747 98.778 86.888 98.778 90.984C98.778 93.6293 99.034 95.5493 99.546 96.744C100.143 97.9387 100.954 98.536 101.978 98.536C103.343 98.536 104.922 97.768 106.714 96.232C108.506 94.6107 110.341 92.4773 112.218 89.832C114.095 87.1867 115.759 84.328 117.21 81.256C118.149 79.2933 118.874 78.312 119.386 78.312C119.727 78.312 119.898 78.6533 119.898 79.336C119.898 80.2747 119.514 81.64 118.746 83.432C118.063 85.1387 117.21 86.888 116.186 88.68C115.247 90.472 114.351 91.88 113.498 92.904C112.047 94.7813 110.383 96.4453 108.506 97.896C106.629 99.3467 104.623 100.072 102.49 100.072ZM116.834 138.728C115.554 138.728 114.53 137.875 113.762 136.168C112.994 134.547 112.439 132.584 112.098 130.28C111.671 127.976 111.458 125.843 111.458 123.88C111.458 122.941 111.501 121.576 111.586 119.784C111.671 117.992 111.799 116.072 111.97 114.024C112.141 111.976 112.311 110.056 112.482 108.264C112.653 106.472 112.781 105.107 112.866 104.168C113.634 98.3653 114.786 92.776 116.322 87.4C117.858 81.9387 119.522 76.6053 121.314 71.4C121.399 71.2293 121.485 70.9733 121.57 70.632C121.741 70.2907 121.869 70.12 121.954 70.12V69.736C121.101 70.0773 119.991 70.888 118.626 72.168C117.346 73.448 116.407 74.4293 115.81 75.112C115.213 75.7093 114.658 76.3493 114.146 77.032C113.634 77.6293 113.037 77.928 112.354 77.928C111.671 77.928 111.33 77.544 111.33 76.776C111.33 75.8373 111.842 74.8987 112.866 73.96C113.805 72.936 114.871 71.9973 116.066 71.144C117.261 70.2053 118.541 69.352 119.906 68.584C121.357 67.816 122.381 67.2613 122.978 66.92C123.234 66.7493 123.405 66.536 123.49 66.28C123.661 66.024 123.789 65.768 123.874 65.512C124.471 64.5733 125.069 63.6773 125.666 62.824C126.349 61.9707 127.245 61.3733 128.354 61.032C129.122 61.1173 129.975 61.288 130.914 61.544C131.853 61.8 132.407 62.3973 132.578 63.336C132.578 63.6773 132.663 63.848 132.834 63.848V63.976C133.261 63.976 133.773 63.9333 134.37 63.848C135.053 63.6773 135.821 63.592 136.674 63.592C140.002 63.592 142.69 64.4453 144.738 66.152C146.786 67.8587 147.81 70.12 147.81 72.936C147.81 75.5813 147.042 78.44 145.506 81.512C143.97 84.4987 142.306 86.9307 140.514 88.808C137.698 91.624 134.711 94.0987 131.554 96.232C128.482 98.28 125.837 99.304 123.618 99.304C122.253 99.304 121.314 98.92 120.802 98.152C120.375 97.4693 120.162 96.616 120.162 95.592C120.162 94.1413 120.802 92.6907 122.082 91.24C123.362 89.7893 124.642 88.552 125.922 87.528C127.373 86.3333 128.866 85.224 130.402 84.2C132.023 83.176 133.389 82.3227 134.498 81.64C135.095 81.2133 135.65 80.8293 136.162 80.488C136.759 80.1467 137.271 79.976 137.698 79.976C137.954 79.976 138.082 80.104 138.082 80.36C138.082 80.5307 137.57 80.9573 136.546 81.64C135.607 82.3227 134.797 82.92 134.114 83.432C133.602 83.8587 132.706 84.6267 131.426 85.736C130.146 86.76 128.781 87.9547 127.33 89.32C125.965 90.6 124.77 91.9227 123.746 93.288C122.722 94.6533 122.21 95.848 122.21 96.872C123.575 96.872 125.069 96.3173 126.69 95.208C128.397 94.0133 130.061 92.648 131.682 91.112C133.389 89.576 134.839 88.296 136.034 87.272C137.143 86.248 138.466 84.84 140.002 83.048C141.538 81.256 142.903 79.336 144.098 77.288C145.293 75.24 145.89 73.3627 145.89 71.656C145.89 69.4373 145.037 67.816 143.33 66.792C141.709 65.6827 139.746 65.128 137.442 65.128C136.674 65.128 135.693 65.2133 134.498 65.384C133.303 65.5547 132.578 65.7253 132.322 65.896C130.445 68.7973 128.653 71.7413 126.946 74.728C125.239 77.7147 123.661 80.7867 122.21 83.944C119.821 89.064 117.901 94.2693 116.45 99.56C115.085 104.851 114.189 110.568 113.762 116.712C113.677 118.163 113.549 119.699 113.378 121.32C113.293 122.941 113.293 124.563 113.378 126.184C113.463 127.037 113.634 128.403 113.89 130.28C114.146 132.157 114.573 133.864 115.17 135.4C115.767 136.936 116.578 137.704 117.602 137.704C117.687 137.704 117.858 137.704 118.114 137.704C118.37 137.704 118.498 137.747 118.498 137.832V138.216C117.901 138.557 117.346 138.728 116.834 138.728ZM149.852 93.928C149.084 93.928 148.828 93.4587 149.084 92.52C150.108 88.424 151.772 84.712 154.076 81.384C156.465 77.9707 159.281 74.728 162.524 71.656C165.852 68.584 169.393 65.4693 173.148 62.312C171.697 62.4827 170.503 62.696 169.564 62.952C168.625 63.208 167.175 63.336 165.212 63.336C163.505 63.336 161.671 63.208 159.708 62.952C157.831 62.6107 156.209 62.0987 154.844 61.416C153.479 60.7333 152.796 59.752 152.796 58.472C152.796 57.448 153.052 56.5947 153.564 55.912C154.161 55.2293 154.801 54.5893 155.484 53.992C155.911 53.5653 156.295 53.352 156.636 53.352C156.977 53.352 157.148 53.5653 157.148 53.992C157.148 54.504 156.892 55.016 156.38 55.528C155.697 56.2107 155.356 56.808 155.356 57.32C155.356 58.1733 156.124 58.8133 157.66 59.24C159.281 59.5813 161.201 59.752 163.42 59.752C165.98 59.752 168.625 59.5387 171.356 59.112C174.172 58.6853 176.391 58.1733 178.012 57.576C179.036 57.1493 179.761 56.808 180.188 56.552C180.7 56.2107 181.127 56.04 181.468 56.04C182.151 56.04 182.705 56.424 183.132 57.192C183.644 57.96 183.9 58.7707 183.9 59.624C183.9 60.648 183.559 61.3307 182.876 61.672C178.695 64.1467 174.556 66.664 170.46 69.224C166.364 71.6987 162.737 74.6 159.58 77.928C156.423 81.256 154.076 85.4373 152.54 90.472C153.905 89.6187 155.74 88.68 158.044 87.656C160.433 86.5467 162.951 85.608 165.596 84.84C168.327 83.9867 170.801 83.56 173.02 83.56C175.751 83.56 177.457 84.072 178.14 85.096C178.908 86.0347 179.292 86.888 179.292 87.656C179.292 88.3387 179.249 89.0213 179.164 89.704C179.164 90.3013 179.079 90.8133 178.908 91.24C178.567 92.008 178.14 92.392 177.628 92.392C177.287 92.392 177.244 92.136 177.5 91.624C177.671 91.368 177.799 91.1547 177.884 90.984C177.969 90.728 178.012 90.4293 178.012 90.088C178.012 88.9787 177.031 88.2533 175.068 87.912C173.105 87.5707 171.143 87.4 169.18 87.4C166.535 87.4 163.591 87.9973 160.348 89.192C157.191 90.3013 154.588 91.4533 152.54 92.648C150.919 93.5013 150.023 93.928 149.852 93.928ZM194.47 98.664C191.398 98.664 188.71 96.872 186.406 93.288C184.187 89.6187 183.078 83.8587 183.078 76.008C183.078 70.888 183.718 66.792 184.998 63.72C186.278 60.5627 187.857 58.2587 189.734 56.808C191.611 55.3573 193.403 54.632 195.11 54.632C196.817 54.632 198.267 55.2293 199.462 56.424C200.657 57.5333 201.254 59.1547 201.254 61.288C201.254 63.336 200.657 65.512 199.462 67.816C198.267 70.0347 196.817 72.0827 195.11 73.96C193.489 75.752 191.867 76.9467 190.246 77.544C189.905 77.7147 189.478 77.8 188.966 77.8C188.625 77.8 188.454 77.672 188.454 77.416C188.454 76.7333 189.137 75.9653 190.502 75.112C192.209 73.9173 193.83 72.1253 195.366 69.736C196.902 67.2613 197.67 65.0853 197.67 63.208C197.67 62.0987 197.414 61.2453 196.902 60.648C196.39 59.9653 195.793 59.624 195.11 59.624C193.83 59.624 192.422 60.648 190.886 62.696C189.435 64.6587 188.369 68.072 187.686 72.936C187.515 74.3013 187.345 75.624 187.174 76.904C187.089 78.0987 187.046 79.2933 187.046 80.488C187.046 85.2667 187.771 89.0213 189.222 91.752C190.673 94.3973 192.593 95.72 194.982 95.72C197.03 95.72 199.334 94.5253 201.894 92.136C204.454 89.6613 206.971 85.8213 209.446 80.616C210.043 79.2507 210.726 78.568 211.494 78.568C212.006 78.568 212.262 78.9093 212.262 79.592C212.262 80.1893 212.091 80.8293 211.75 81.512C209.531 86.9733 206.843 91.1973 203.686 94.184C200.529 97.1707 197.457 98.664 194.47 98.664ZM219.845 98.664C216.773 98.664 214.085 96.872 211.781 93.288C209.562 89.6187 208.453 83.8587 208.453 76.008C208.453 70.888 209.093 66.792 210.373 63.72C211.653 60.5627 213.232 58.2587 215.109 56.808C216.986 55.3573 218.778 54.632 220.485 54.632C222.192 54.632 223.642 55.2293 224.837 56.424C226.032 57.5333 226.629 59.1547 226.629 61.288C226.629 63.336 226.032 65.512 224.837 67.816C223.642 70.0347 222.192 72.0827 220.485 73.96C218.864 75.752 217.242 76.9467 215.621 77.544C215.28 77.7147 214.853 77.8 214.341 77.8C214 77.8 213.829 77.672 213.829 77.416C213.829 76.7333 214.512 75.9653 215.877 75.112C217.584 73.9173 219.205 72.1253 220.741 69.736C222.277 67.2613 223.045 65.0853 223.045 63.208C223.045 62.0987 222.789 61.2453 222.277 60.648C221.765 59.9653 221.168 59.624 220.485 59.624C219.205 59.624 217.797 60.648 216.261 62.696C214.81 64.6587 213.744 68.072 213.061 72.936C212.89 74.3013 212.72 75.624 212.549 76.904C212.464 78.0987 212.421 79.2933 212.421 80.488C212.421 85.2667 213.146 89.0213 214.597 91.752C216.048 94.3973 217.968 95.72 220.357 95.72C222.405 95.72 224.709 94.5253 227.269 92.136C229.829 89.6613 232.346 85.8213 234.821 80.616C235.418 79.2507 236.101 78.568 236.869 78.568C237.381 78.568 237.637 78.9093 237.637 79.592C237.637 80.1893 237.466 80.8293 237.125 81.512C234.906 86.9733 232.218 91.1973 229.061 94.184C225.904 97.1707 222.832 98.664 219.845 98.664Z" fill="white"/>
</svg>
