<svg width="316" height="193" viewBox="0 0 316 193" fill="none" xmlns="http://www.w3.org/2000/svg">
<path d="M61.97 192.75C56.7567 192.75 51.7133 190.597 46.84 186.29C42.08 181.983 38.0567 175.75 34.77 167.59C31.5967 159.43 29.7267 149.57 29.16 138.01C25.6467 138.35 22.4167 138.52 19.47 138.52C12.8967 138.52 8.08 137.67 5.02 135.97C2.07333 134.27 0.6 132.06 0.6 129.34C0.6 126.62 1.90333 123.617 4.51 120.33C7.11667 117.043 10.7433 113.757 15.39 110.47C20.0367 107.07 25.4767 104.01 31.71 101.29C33.8633 89.73 37.32 77.2633 42.08 63.89C46.9533 50.4033 53.47 36.1233 61.63 21.05C62.4233 19.5767 63.6133 18.84 65.2 18.84C66.22 18.84 67.1267 19.18 67.92 19.86C68.7133 20.54 69.11 21.4467 69.11 22.58C69.11 23.1467 68.94 23.8833 68.6 24.79C61.3467 39.41 55.2833 52.84 50.41 65.08C45.65 77.2067 41.91 88.3133 39.19 98.4C44.29 96.4733 49.73 94.8867 55.51 93.64C61.29 92.3933 67.1833 91.6567 73.19 91.43C74.7767 91.43 75.57 91.6567 75.57 92.11C75.57 92.5633 75.0033 93.0167 73.87 93.47C72.85 93.81 71.0933 94.0367 68.6 94.15C63.0467 94.49 57.72 95.2833 52.62 96.53C47.6333 97.6633 42.93 99.08 38.51 100.78C36.81 107.353 35.5067 113.473 34.6 119.14C33.6933 124.693 33.1267 129.85 32.9 134.61C44.5733 132.117 55.17 128.49 64.69 123.73C74.3233 118.857 82.8233 113.247 90.19 106.9C97.5567 100.553 103.733 93.98 108.72 87.18C111.893 82.8733 114.16 79.0767 115.52 75.79C116.993 72.39 117.73 69.4433 117.73 66.95C117.73 63.3233 116.597 60.49 114.33 58.45C112.063 56.2967 109.06 54.7667 105.32 53.86C101.58 52.84 97.5 52.33 93.08 52.33C88.4333 52.33 83.73 52.7833 78.97 53.69C74.21 54.4833 69.9033 55.6167 66.05 57.09C65.1433 57.3167 64.52 57.43 64.18 57.43C62.7067 57.43 61.97 56.92 61.97 55.9C61.97 54.88 62.5933 54.0867 63.84 53.52C77.78 45.5867 87.6967 38.39 93.59 31.93C99.4833 25.47 102.43 20.03 102.43 15.61C102.43 11.7567 100.617 8.80999 96.99 6.76999C93.4767 4.61666 88.83 3.53999 83.05 3.53999C78.5167 3.53999 73.4167 4.27666 67.75 5.75C62.0833 7.22333 56.2467 9.60333 50.24 12.89C45.2533 15.61 40.72 18.84 36.64 22.58C32.6733 26.2067 29.2733 30.0033 26.44 33.97C23.72 37.8233 21.68 41.5067 20.32 45.02C18.96 48.42 18.45 51.31 18.79 53.69C18.79 53.9167 18.79 54.2 18.79 54.54C18.9033 54.7667 18.96 54.9933 18.96 55.22C18.96 58.0533 18.11 59.47 16.41 59.47C15.6167 59.47 14.7667 58.9033 13.86 57.77C13.0667 56.6367 12.67 54.9367 12.67 52.67C12.67 49.27 13.69 45.6433 15.73 41.79C17.8833 37.9367 20.7167 34.0833 24.23 30.23C27.8567 26.2633 31.88 22.58 36.3 19.18C40.72 15.6667 45.31 12.6633 50.07 10.17C56.19 6.88332 62.1967 4.44666 68.09 2.85999C74.0967 1.27333 79.5933 0.479993 84.58 0.479993C91.4933 0.479993 97.1033 1.83999 101.41 4.55999C105.717 7.28 107.87 11.0767 107.87 15.95C107.87 20.4833 105.66 25.7533 101.24 31.76C96.82 37.7667 89.3967 44.3967 78.97 51.65C82.4833 51.0833 85.77 50.6867 88.83 50.46C91.89 50.12 94.7233 49.95 97.33 49.95C107.077 49.95 114.103 51.5933 118.41 54.88C122.83 58.0533 125.04 62.19 125.04 67.29C125.04 71.03 123.963 75.11 121.81 79.53C119.77 83.8367 116.88 88.3133 113.14 92.96C107.7 99.6467 100.843 106.107 92.57 112.34C84.41 118.573 75.23 123.957 65.03 128.49C54.9433 133.023 44.1767 136.083 32.73 137.67C32.5033 147.757 33.41 156.087 35.45 162.66C37.6033 169.233 40.3233 174.333 43.61 177.96C46.8967 181.7 50.1833 184.307 53.47 185.78C56.7567 187.367 59.4767 188.16 61.63 188.16C63.2167 188.16 64.2933 187.877 64.86 187.31C65.3133 186.743 65.9933 186.46 66.9 186.46C67.8067 186.46 68.6567 186.8 69.45 187.48C70.2433 188.16 70.64 188.897 70.64 189.69C70.64 190.37 70.2433 190.88 69.45 191.22C66.9567 192.24 64.4633 192.75 61.97 192.75ZM20.15 136.31C21.3967 136.31 22.7567 136.197 24.23 135.97C25.7033 135.857 27.29 135.687 28.99 135.46C28.8767 130.7 28.99 125.713 29.33 120.5C29.67 115.287 30.2933 109.847 31.2 104.18C23.9467 107.92 18.2233 112.113 14.03 116.76C9.83667 121.293 7.74 125.317 7.74 128.83C7.74 130.983 8.76 132.74 10.8 134.1C12.84 135.573 15.9567 136.31 20.15 136.31ZM144.805 72.22C143.785 72.22 143.048 71.71 142.595 70.69C142.255 69.5567 142.085 68.7633 142.085 68.31C142.085 66.4967 142.595 64.7967 143.615 63.21C144.748 61.51 145.995 60.6033 147.355 60.49H147.865C149.225 60.49 150.132 60.83 150.585 61.51C151.152 62.0767 151.435 62.8133 151.435 63.72C151.435 65.42 150.698 67.29 149.225 69.33C147.752 71.2567 146.278 72.22 144.805 72.22ZM136.135 133.08C132.282 133.08 129.675 131.607 128.315 128.66C126.955 125.713 126.275 122.313 126.275 118.46C126.275 114.607 126.672 110.583 127.465 106.39C128.372 102.083 129.335 98.1733 130.355 94.66C131.488 91.1467 132.338 88.6533 132.905 87.18C134.152 84.5733 135.398 82.3633 136.645 80.55C137.892 78.6233 139.252 77.66 140.725 77.66C141.745 77.66 142.482 78.0567 142.935 78.85C143.502 79.53 143.785 80.4367 143.785 81.57C143.785 83.8367 143.162 86.16 141.915 88.54C140.668 90.8067 139.535 92.96 138.515 95C136.248 99.6467 134.435 103.783 133.075 107.41C131.828 111.037 131.205 115.57 131.205 121.01C131.205 124.523 131.545 127.073 132.225 128.66C133.018 130.247 134.095 131.04 135.455 131.04C137.268 131.04 139.365 130.02 141.745 127.98C144.125 125.827 146.562 122.993 149.055 119.48C151.548 115.967 153.758 112.17 155.685 108.09C156.932 105.483 157.895 104.18 158.575 104.18C159.028 104.18 159.255 104.633 159.255 105.54C159.255 106.787 158.745 108.6 157.725 110.98C156.818 113.247 155.685 115.57 154.325 117.95C153.078 120.33 151.888 122.2 150.755 123.56C148.828 126.053 146.618 128.263 144.125 130.19C141.632 132.117 138.968 133.08 136.135 133.08ZM155.186 184.42C153.486 184.42 152.126 183.287 151.106 181.02C150.086 178.867 149.349 176.26 148.896 173.2C148.329 170.14 148.046 167.307 148.046 164.7C148.046 163.453 148.102 161.64 148.216 159.26C148.329 156.88 148.499 154.33 148.726 151.61C148.952 148.89 149.179 146.34 149.406 143.96C149.632 141.58 149.802 139.767 149.916 138.52C150.936 130.813 152.466 123.39 154.506 116.25C156.546 108.997 158.756 101.913 161.136 95C161.249 94.7733 161.362 94.4333 161.476 93.98C161.702 93.5267 161.872 93.3 161.986 93.3V92.79C160.852 93.2433 159.379 94.32 157.566 96.02C155.866 97.72 154.619 99.0233 153.826 99.93C153.032 100.723 152.296 101.573 151.616 102.48C150.936 103.273 150.142 103.67 149.236 103.67C148.329 103.67 147.876 103.16 147.876 102.14C147.876 100.893 148.556 99.6467 149.916 98.4C151.162 97.04 152.579 95.7933 154.166 94.66C155.752 93.4133 157.452 92.28 159.266 91.26C161.192 90.24 162.552 89.5033 163.346 89.05C163.686 88.8233 163.912 88.54 164.026 88.2C164.252 87.86 164.422 87.52 164.536 87.18C165.329 85.9333 166.122 84.7433 166.916 83.61C167.822 82.4767 169.012 81.6833 170.486 81.23C171.506 81.3433 172.639 81.57 173.886 81.91C175.132 82.25 175.869 83.0433 176.096 84.29C176.096 84.7433 176.209 84.97 176.436 84.97V85.14C177.002 85.14 177.682 85.0833 178.476 84.97C179.382 84.7433 180.402 84.63 181.536 84.63C185.956 84.63 189.526 85.7633 192.246 88.03C194.966 90.2967 196.326 93.3 196.326 97.04C196.326 100.553 195.306 104.35 193.266 108.43C191.226 112.397 189.016 115.627 186.636 118.12C182.896 121.86 178.929 125.147 174.736 127.98C170.656 130.7 167.142 132.06 164.196 132.06C162.382 132.06 161.136 131.55 160.456 130.53C159.889 129.623 159.606 128.49 159.606 127.13C159.606 125.203 160.456 123.277 162.156 121.35C163.856 119.423 165.556 117.78 167.256 116.42C169.182 114.833 171.166 113.36 173.206 112C175.359 110.64 177.172 109.507 178.646 108.6C179.439 108.033 180.176 107.523 180.856 107.07C181.649 106.617 182.329 106.39 182.896 106.39C183.236 106.39 183.406 106.56 183.406 106.9C183.406 107.127 182.726 107.693 181.366 108.6C180.119 109.507 179.042 110.3 178.136 110.98C177.456 111.547 176.266 112.567 174.566 114.04C172.866 115.4 171.052 116.987 169.126 118.8C167.312 120.5 165.726 122.257 164.366 124.07C163.006 125.883 162.326 127.47 162.326 128.83C164.139 128.83 166.122 128.093 168.276 126.62C170.542 125.033 172.752 123.22 174.906 121.18C177.172 119.14 179.099 117.44 180.686 116.08C182.159 114.72 183.916 112.85 185.956 110.47C187.996 108.09 189.809 105.54 191.396 102.82C192.982 100.1 193.776 97.6067 193.776 95.34C193.776 92.3933 192.642 90.24 190.376 88.88C188.222 87.4067 185.616 86.67 182.556 86.67C181.536 86.67 180.232 86.7833 178.646 87.01C177.059 87.2367 176.096 87.4633 175.756 87.69C173.262 91.5433 170.882 95.4533 168.616 99.42C166.349 103.387 164.252 107.467 162.326 111.66C159.152 118.46 156.602 125.373 154.676 132.4C152.862 139.427 151.672 147.02 151.106 155.18C150.992 157.107 150.822 159.147 150.596 161.3C150.482 163.453 150.482 165.607 150.596 167.76C150.709 168.893 150.936 170.707 151.276 173.2C151.616 175.693 152.182 177.96 152.976 180C153.769 182.04 154.846 183.06 156.206 183.06C156.319 183.06 156.546 183.06 156.886 183.06C157.226 183.06 157.396 183.117 157.396 183.23V183.74C156.602 184.193 155.866 184.42 155.186 184.42ZM199.038 124.92C198.018 124.92 197.678 124.297 198.018 123.05C199.378 117.61 201.588 112.68 204.648 108.26C207.821 103.727 211.561 99.42 215.868 95.34C220.288 91.26 224.991 87.1233 229.978 82.93C228.051 83.1567 226.464 83.44 225.218 83.78C223.971 84.12 222.044 84.29 219.438 84.29C217.171 84.29 214.734 84.12 212.128 83.78C209.634 83.3267 207.481 82.6467 205.668 81.74C203.854 80.8333 202.948 79.53 202.948 77.83C202.948 76.47 203.288 75.3367 203.968 74.43C204.761 73.5233 205.611 72.6733 206.518 71.88C207.084 71.3133 207.594 71.03 208.048 71.03C208.501 71.03 208.728 71.3133 208.728 71.88C208.728 72.56 208.388 73.24 207.708 73.92C206.801 74.8267 206.348 75.62 206.348 76.3C206.348 77.4333 207.368 78.2833 209.408 78.85C211.561 79.3033 214.111 79.53 217.058 79.53C220.458 79.53 223.971 79.2467 227.598 78.68C231.338 78.1133 234.284 77.4333 236.438 76.64C237.798 76.0733 238.761 75.62 239.328 75.28C240.008 74.8267 240.574 74.6 241.028 74.6C241.934 74.6 242.671 75.11 243.238 76.13C243.918 77.15 244.258 78.2267 244.258 79.36C244.258 80.72 243.804 81.6267 242.898 82.08C237.344 85.3667 231.848 88.71 226.408 92.11C220.968 95.3967 216.151 99.25 211.958 103.67C207.764 108.09 204.648 113.643 202.608 120.33C204.421 119.197 206.858 117.95 209.918 116.59C213.091 115.117 216.434 113.87 219.948 112.85C223.574 111.717 226.861 111.15 229.808 111.15C233.434 111.15 235.701 111.83 236.608 113.19C237.628 114.437 238.138 115.57 238.138 116.59C238.138 117.497 238.081 118.403 237.968 119.31C237.968 120.103 237.854 120.783 237.628 121.35C237.174 122.37 236.608 122.88 235.928 122.88C235.474 122.88 235.418 122.54 235.758 121.86C235.984 121.52 236.154 121.237 236.268 121.01C236.381 120.67 236.438 120.273 236.438 119.82C236.438 118.347 235.134 117.383 232.528 116.93C229.921 116.477 227.314 116.25 224.708 116.25C221.194 116.25 217.284 117.043 212.978 118.63C208.784 120.103 205.328 121.633 202.608 123.22C200.454 124.353 199.264 124.92 199.038 124.92ZM258.296 131.21C254.216 131.21 250.646 128.83 247.586 124.07C244.639 119.197 243.166 111.547 243.166 101.12C243.166 94.32 244.016 88.88 245.716 84.8C247.416 80.6067 249.513 77.5467 252.006 75.62C254.499 73.6933 256.879 72.73 259.146 72.73C261.413 72.73 263.339 73.5233 264.926 75.11C266.513 76.5833 267.306 78.7367 267.306 81.57C267.306 84.29 266.513 87.18 264.926 90.24C263.339 93.1867 261.413 95.9067 259.146 98.4C256.993 100.78 254.839 102.367 252.686 103.16C252.233 103.387 251.666 103.5 250.986 103.5C250.533 103.5 250.306 103.33 250.306 102.99C250.306 102.083 251.213 101.063 253.026 99.93C255.293 98.3433 257.446 95.9633 259.486 92.79C261.526 89.5033 262.546 86.6133 262.546 84.12C262.546 82.6467 262.206 81.5133 261.526 80.72C260.846 79.8133 260.053 79.36 259.146 79.36C257.446 79.36 255.576 80.72 253.536 83.44C251.609 86.0467 250.193 90.58 249.286 97.04C249.059 98.8533 248.833 100.61 248.606 102.31C248.493 103.897 248.436 105.483 248.436 107.07C248.436 113.417 249.399 118.403 251.326 122.03C253.253 125.543 255.803 127.3 258.976 127.3C261.696 127.3 264.756 125.713 268.156 122.54C271.556 119.253 274.899 114.153 278.186 107.24C278.979 105.427 279.886 104.52 280.906 104.52C281.586 104.52 281.926 104.973 281.926 105.88C281.926 106.673 281.699 107.523 281.246 108.43C278.299 115.683 274.729 121.293 270.536 125.26C266.343 129.227 262.263 131.21 258.296 131.21ZM291.997 131.21C287.917 131.21 284.347 128.83 281.287 124.07C278.341 119.197 276.867 111.547 276.867 101.12C276.867 94.32 277.717 88.88 279.417 84.8C281.117 80.6067 283.214 77.5467 285.707 75.62C288.201 73.6933 290.581 72.73 292.847 72.73C295.114 72.73 297.041 73.5233 298.627 75.11C300.214 76.5833 301.007 78.7367 301.007 81.57C301.007 84.29 300.214 87.18 298.627 90.24C297.041 93.1867 295.114 95.9067 292.847 98.4C290.694 100.78 288.541 102.367 286.387 103.16C285.934 103.387 285.367 103.5 284.687 103.5C284.234 103.5 284.007 103.33 284.007 102.99C284.007 102.083 284.914 101.063 286.727 99.93C288.994 98.3433 291.147 95.9633 293.187 92.79C295.227 89.5033 296.247 86.6133 296.247 84.12C296.247 82.6467 295.907 81.5133 295.227 80.72C294.547 79.8133 293.754 79.36 292.847 79.36C291.147 79.36 289.277 80.72 287.237 83.44C285.311 86.0467 283.894 90.58 282.987 97.04C282.761 98.8533 282.534 100.61 282.307 102.31C282.194 103.897 282.137 105.483 282.137 107.07C282.137 113.417 283.101 118.403 285.027 122.03C286.954 125.543 289.504 127.3 292.677 127.3C295.397 127.3 298.457 125.713 301.857 122.54C305.257 119.253 308.601 114.153 311.887 107.24C312.681 105.427 313.587 104.52 314.607 104.52C315.287 104.52 315.627 104.973 315.627 105.88C315.627 106.673 315.401 107.523 314.947 108.43C312.001 115.683 308.431 121.293 304.237 125.26C300.044 129.227 295.964 131.21 291.997 131.21Z" fill="white"/>
</svg>
